<svg width="25" height="25" viewBox="0 0 25 25" fill="none" xmlns="http://www.w3.org/2000/svg">
<path d="M24.197 10.6519L21.7953 6.05264C21.6521 5.78131 21.4086 5.5766 21.1167 5.48213C20.8248 5.38766 20.5075 5.41089 20.2325 5.54686L17.8765 6.72479H16.1L12.8008 5.23201C12.5459 5.11687 12.2583 5.09653 11.9898 5.17464L7.08959 6.60319L4.76749 5.4422C4.49244 5.30627 4.1752 5.28307 3.88329 5.37752C3.59139 5.47198 3.34788 5.67664 3.20461 5.94793L0.802968 10.5473C0.730952 10.6852 0.687131 10.8361 0.674062 10.9912C0.660993 11.1463 0.678938 11.3024 0.72685 11.4504C0.774762 11.5985 0.851681 11.7355 0.953119 11.8535C1.05456 11.9716 1.17848 12.0682 1.31767 12.1378L3.69656 13.3272L9.00361 17.4771C9.13278 17.5784 9.28192 17.6513 9.44125 17.6909L15.1011 19.1059C15.1932 19.1288 15.2877 19.1404 15.3826 19.1404C15.6942 19.1405 15.993 19.0173 16.214 18.7976L19.8074 15.2041C19.8146 15.1969 19.8215 15.1895 19.8282 15.1817L21.3393 13.414L23.6823 12.2425C23.8215 12.1729 23.9454 12.0762 24.0468 11.9582C24.1483 11.8402 24.2252 11.7031 24.2731 11.5551C24.321 11.407 24.339 11.2509 24.3259 11.0958C24.3128 10.9408 24.269 10.7898 24.197 10.6519ZM19.469 14.3996L15.4641 11.487C15.3965 11.4379 15.315 11.4117 15.2315 11.4123C15.1479 11.4129 15.0668 11.4403 14.9999 11.4904L13.75 12.4279C13.2757 12.7807 12.7004 12.9713 12.1094 12.9713C11.5183 12.9713 10.943 12.7807 10.4687 12.4279L9.93936 12.0309C9.8946 11.9973 9.85756 11.9545 9.83078 11.9054C9.80399 11.8563 9.78807 11.8019 9.7841 11.7461C9.78013 11.6903 9.7882 11.6343 9.80777 11.5819C9.82733 11.5294 9.85793 11.4818 9.8975 11.4422L13.7192 7.62048C13.7927 7.54748 13.8919 7.50636 13.9954 7.50604H16.0145L16.0154 7.50614L16.0167 7.50604H17.732L20.6253 13.0468L19.469 14.3996ZM1.47016 11.2099C1.45402 11.1606 1.44794 11.1085 1.4523 11.0568C1.45666 11.0051 1.47136 10.9548 1.49553 10.9088L3.89716 6.30952C3.93053 6.24622 3.98058 6.19325 4.04188 6.15635C4.10319 6.11944 4.17341 6.10001 4.24497 6.10014C4.30506 6.10009 4.36433 6.11406 4.41806 6.14096L6.50098 7.18237L3.73761 12.4743L1.66709 11.439C1.6206 11.416 1.57921 11.3838 1.54538 11.3445C1.51155 11.3051 1.48597 11.2594 1.47016 11.2099ZM15.6616 18.2452C15.6138 18.2928 15.5545 18.3272 15.4895 18.3452C15.4245 18.3632 15.356 18.3641 15.2905 18.3479L9.63066 16.9329C9.57757 16.9197 9.52787 16.8955 9.48484 16.8617L4.403 12.888L7.29034 7.35845L12.2083 5.92471C12.2979 5.8986 12.3937 5.90537 12.4787 5.94378L14.2047 6.7248H13.9954C13.8415 6.72438 13.689 6.75449 13.5468 6.81341C13.4046 6.87233 13.2754 6.95887 13.1669 7.06802L9.34512 10.8898C9.22639 11.0085 9.13455 11.1513 9.07582 11.3086C9.0171 11.4659 8.99286 11.634 9.00475 11.8015C9.01664 11.969 9.06439 12.1319 9.14475 12.2793C9.22511 12.4268 9.33621 12.5552 9.47053 12.6559L9.99992 13.0529C10.6097 13.5066 11.3494 13.7515 12.1093 13.7515C12.8693 13.7515 13.609 13.5066 14.2188 13.0529L15.2379 12.2885L18.9318 14.975L15.6616 18.2452ZM23.5298 11.3146C23.514 11.364 23.4884 11.4098 23.4546 11.4491C23.4207 11.4885 23.3793 11.5206 23.3329 11.5437L21.2623 12.579L18.499 7.28703L20.5819 6.24562C20.6736 6.20027 20.7793 6.19251 20.8766 6.22401C20.9739 6.25551 21.0551 6.32376 21.1028 6.41423L23.5044 11.0135C23.5286 11.0594 23.5433 11.1097 23.5476 11.1615C23.552 11.2132 23.5459 11.2653 23.5298 11.3146ZM11.3165 20.882C11.3041 20.9318 11.282 20.9786 11.2515 21.0199C11.2209 21.0611 11.1826 21.096 11.1386 21.1224C11.0946 21.1488 11.0458 21.1662 10.995 21.1738C10.9443 21.1813 10.8925 21.1788 10.8428 21.1663L7.89945 20.4305C7.72034 20.3855 7.55432 20.299 7.41479 20.178L5.21247 18.2636C5.17362 18.23 5.14177 18.189 5.11876 18.1431C5.09575 18.0972 5.08203 18.0471 5.07838 17.9959C5.07474 17.9446 5.08123 17.8932 5.0975 17.8445C5.11378 17.7957 5.1395 17.7507 5.17321 17.7119C5.20691 17.6731 5.24793 17.6414 5.29393 17.6185C5.33992 17.5956 5.38997 17.582 5.44123 17.5785C5.49248 17.575 5.54393 17.5816 5.59262 17.598C5.64131 17.6144 5.68629 17.6402 5.72497 17.674L7.92739 19.5884C7.97399 19.6288 8.02938 19.6576 8.08913 19.6726L11.0322 20.4083C11.1327 20.4334 11.2191 20.4975 11.2724 20.5863C11.3257 20.6751 11.3416 20.7815 11.3165 20.882Z" fill="#2B3431"/>
</svg>
