<svg width="19" height="19" viewBox="0 0 19 19" fill="none" xmlns="http://www.w3.org/2000/svg">
<path d="M17.1087 9.17519C17.1087 7.12808 17.1087 6.10452 16.5103 5.43921C16.4553 5.37802 16.397 5.31977 16.3358 5.26473C15.6705 4.66634 14.647 4.66634 12.5998 4.66634H12.3092C11.412 4.66634 10.9635 4.66634 10.5455 4.54719C10.3158 4.48172 10.0944 4.39004 9.88577 4.27395C9.50595 4.06261 9.18874 3.74541 8.55432 3.111L8.12637 2.68309C7.91376 2.47046 7.80745 2.36414 7.69573 2.27152C7.21402 1.87221 6.6231 1.62744 6.00012 1.56918C5.85562 1.55566 5.70527 1.55566 5.40457 1.55566C4.71825 1.55566 4.37509 1.55566 4.08925 1.6096C2.83092 1.84701 1.84664 2.83128 1.60923 4.08961C1.5553 4.37545 1.5553 4.71862 1.5553 5.40493M17.1019 12.443C17.074 14.3713 16.931 15.4645 16.1976 16.1979C15.2865 17.109 13.8201 17.109 10.8873 17.109H7.77665C4.84387 17.109 3.37749 17.109 2.46639 16.1979C1.5553 15.2869 1.5553 13.8204 1.5553 10.8877V8.55469" stroke="#2B3431" stroke-width="1.1665" stroke-linecap="round"/>
<path d="M7.77673 10.4985L8.8136 11.665L10.8874 9.33203" stroke="#2B3431" stroke-width="1.1665" stroke-linecap="round" stroke-linejoin="round"/>
</svg>
