<svg width="30" height="30" viewBox="0 0 30 30" fill="none" xmlns="http://www.w3.org/2000/svg">
<path d="M17.5 15.3125C16.5728 15.3125 15.6666 15.0376 14.8957 14.5225C14.1248 14.0075 13.5241 13.2754 13.1693 12.4188C12.8145 11.5623 12.7217 10.6198 12.9026 9.71051C13.0835 8.80123 13.5298 7.966 14.1855 7.31044C14.841 6.65488 15.6762 6.20844 16.5855 6.02758C17.4947 5.8467 18.4372 5.93953 19.2938 6.29431C20.1503 6.6491 20.8825 7.24991 21.3975 8.02076C21.9126 8.79163 22.1875 9.6979 22.1875 10.625C22.1875 11.8682 21.6936 13.0605 20.8146 13.9396C19.9355 14.8186 18.7432 15.3125 17.5 15.3125ZM17.5 7.8125C16.9437 7.8125 16.4 7.97745 15.9375 8.28649C15.475 8.59554 15.1145 9.03479 14.9016 9.5487C14.6887 10.0626 14.633 10.6281 14.7415 11.1737C14.8501 11.7193 15.1178 12.2204 15.5112 12.6138C15.9046 13.0071 16.4057 13.275 16.9512 13.3835C17.4968 13.492 18.0623 13.4363 18.5762 13.2234C19.0902 13.0105 19.5295 12.65 19.8385 12.1875C20.1475 11.725 20.3125 11.1813 20.3125 10.625C20.3125 9.87908 20.0161 9.16371 19.4887 8.63626C18.9612 8.10881 18.2458 7.8125 17.5 7.8125Z" fill="#2B3431"/>
<path d="M26.25 24.0625C26.0024 24.0592 25.7657 23.9595 25.5906 23.7844C25.4155 23.6093 25.3157 23.3726 25.3125 23.125C25.3125 20.6875 23.9875 19.0625 17.5 19.0625C11.0125 19.0625 9.6875 20.6875 9.6875 23.125C9.6875 23.3736 9.58873 23.6121 9.41291 23.7879C9.2371 23.9638 8.99864 24.0625 8.75 24.0625C8.50136 24.0625 8.2629 23.9638 8.08709 23.7879C7.91127 23.6121 7.8125 23.3736 7.8125 23.125C7.8125 17.1875 14.6 17.1875 17.5 17.1875C20.4 17.1875 27.1875 17.1875 27.1875 23.125C27.1842 23.3726 27.0845 23.6093 26.9094 23.7844C26.7342 23.9595 26.4976 24.0592 26.25 24.0625Z" fill="#2B3431"/>
<path d="M10.4 16.3251H9.99996C9.0054 16.229 8.08977 15.7417 7.45449 14.9705C6.81921 14.1992 6.51632 13.2072 6.61246 12.2126C6.70861 11.218 7.1959 10.3024 7.96714 9.66713C8.73839 9.03186 9.7304 8.72897 10.725 8.82511C10.8525 8.83059 10.9775 8.86206 11.0925 8.91758C11.2074 8.97309 11.3098 9.05151 11.3934 9.14798C11.4769 9.24447 11.5399 9.35701 11.5785 9.47869C11.617 9.60038 11.6303 9.72866 11.6175 9.85566C11.6047 9.98266 11.5661 10.1057 11.5041 10.2173C11.4421 10.3288 11.3579 10.4265 11.2568 10.5044C11.1557 10.5823 11.0397 10.6388 10.916 10.6703C10.7923 10.7018 10.6635 10.7077 10.5375 10.6876C10.2935 10.6633 10.047 10.6884 9.81295 10.7614C9.57885 10.8344 9.36187 10.9539 9.17496 11.1126C8.98512 11.2657 8.82767 11.4551 8.71179 11.6697C8.59589 11.8844 8.52389 12.1199 8.49996 12.3626C8.47412 12.6083 8.49744 12.8568 8.56857 13.0935C8.6397 13.3302 8.75722 13.5503 8.91427 13.7411C9.07134 13.932 9.2648 14.0896 9.48339 14.2048C9.70196 14.3201 9.94131 14.3907 10.1875 14.4126C10.5944 14.4475 11.0018 14.3511 11.35 14.1376C11.5621 14.0067 11.8176 13.9653 12.0603 14.0228C12.3029 14.0802 12.5127 14.2317 12.6437 14.4438C12.7747 14.6561 12.816 14.9116 12.7586 15.1542C12.7011 15.3968 12.5496 15.6067 12.3375 15.7376C11.7577 16.1073 11.0874 16.3106 10.4 16.3251Z" fill="#2B3431"/>
<path d="M3.75 23.125C3.50236 23.1217 3.26579 23.022 3.09066 22.8469C2.91555 22.6718 2.81574 22.4351 2.8125 22.1875C2.8125 18.8125 3.7125 16.5625 8.125 16.5625C8.37364 16.5625 8.6121 16.6612 8.78791 16.8371C8.96372 17.0129 9.0625 17.2514 9.0625 17.5C9.0625 17.7486 8.96372 17.9871 8.78791 18.1629C8.6121 18.3388 8.37364 18.4375 8.125 18.4375C5.1875 18.4375 4.6875 19.375 4.6875 22.1875C4.68426 22.4351 4.58445 22.6718 4.40934 22.8469C4.23421 23.022 3.99764 23.1217 3.75 23.125Z" fill="#2B3431"/>
</svg>
