<svg width="16" height="16" viewBox="0 0 16 16" fill="none" xmlns="http://www.w3.org/2000/svg">
<path d="M8 0.5L9.69642 4.80127C9.853 5.19832 9.93125 5.39685 10.0512 5.56425C10.1574 5.71263 10.2873 5.84255 10.4357 5.94883C10.6032 6.06871 10.8017 6.14701 11.1987 6.3036L15.5 8L11.1987 9.69642C10.8017 9.853 10.6032 9.93125 10.4357 10.0512C10.2873 10.1574 10.1574 10.2873 10.0512 10.4357C9.93125 10.6032 9.853 10.8017 9.69642 11.1987L8 15.5L6.3036 11.1987C6.14701 10.8017 6.06871 10.6032 5.94883 10.4357C5.84255 10.2873 5.71263 10.1574 5.56425 10.0512C5.39685 9.93125 5.19832 9.853 4.80127 9.69642L0.5 8L4.80127 6.3036C5.19832 6.14701 5.39685 6.06871 5.56425 5.94883C5.71263 5.84255 5.84255 5.71263 5.94883 5.56425C6.06871 5.39685 6.14701 5.19832 6.3036 4.80127L8 0.5Z" stroke="#2B3431" stroke-linecap="round" stroke-linejoin="round"/>
</svg>
